<?xml version="1.0" encoding="UTF-8"?>
<svg xmlns="http://www.w3.org/2000/svg" xmlns:xlink="http://www.w3.org/1999/xlink" viewBox="0 0 50 50" width="50px" height="50px">
<g id="surface15753210">
<path style=" stroke:none;fill-rule:nonzero;fill:rgb(11.372549%,14.901961%,23.137255%);fill-opacity:1;" d="M 25 5.46875 C 14.214844 5.46875 5.46875 14.214844 5.46875 25 C 5.46875 35.785156 14.214844 44.53125 25 44.53125 C 35.785156 44.53125 44.53125 35.785156 44.53125 25 C 44.53125 14.214844 35.785156 5.46875 25 5.46875 Z M 25 5.46875 "/>
<path style=" stroke:none;fill-rule:nonzero;fill:rgb(100%,100%,100%);fill-opacity:1;" d="M 25 45.703125 C 13.59375 45.703125 4.296875 36.40625 4.296875 25 C 4.296875 13.59375 13.59375 4.296875 25 4.296875 C 36.40625 4.296875 45.703125 13.59375 45.703125 25 C 45.703125 36.40625 36.40625 45.703125 25 45.703125 Z M 25 6.640625 C 14.882812 6.640625 6.640625 14.882812 6.640625 25 C 6.640625 35.117188 14.882812 43.359375 25 43.359375 C 35.117188 43.359375 43.359375 35.117188 43.359375 25 C 43.359375 14.882812 35.117188 6.640625 25 6.640625 Z M 25 6.640625 "/>
<path style=" stroke:none;fill-rule:nonzero;fill:rgb(100%,100%,100%);fill-opacity:1;" d="M 33.789062 20.3125 L 16.210938 20.3125 C 15.546875 20.3125 15.039062 19.804688 15.039062 19.140625 C 15.039062 18.476562 15.546875 17.96875 16.210938 17.96875 L 33.789062 17.96875 C 34.453125 17.96875 34.960938 18.476562 34.960938 19.140625 C 34.960938 19.804688 34.453125 20.3125 33.789062 20.3125 Z M 33.789062 26.171875 L 16.210938 26.171875 C 15.546875 26.171875 15.039062 25.664062 15.039062 25 C 15.039062 24.335938 15.546875 23.828125 16.210938 23.828125 L 33.789062 23.828125 C 34.453125 23.828125 34.960938 24.335938 34.960938 25 C 34.960938 25.664062 34.453125 26.171875 33.789062 26.171875 Z M 33.789062 26.171875 "/>
<path style=" stroke:none;fill-rule:nonzero;fill:rgb(100%,100%,100%);fill-opacity:1;" d="M 33.789062 32.03125 L 16.210938 32.03125 C 15.546875 32.03125 15.039062 31.523438 15.039062 30.859375 C 15.039062 30.195312 15.546875 29.6875 16.210938 29.6875 L 33.789062 29.6875 C 34.453125 29.6875 34.960938 30.195312 34.960938 30.859375 C 34.960938 31.523438 34.453125 32.03125 33.789062 32.03125 Z M 33.789062 32.03125 "/>
</g>
</svg>
